<?xml version="1.0" encoding="UTF-8"?><svg id="Layer_1" xmlns="http://www.w3.org/2000/svg" viewBox="0 0 181 24"><defs><style>.cls-1{fill:#fff;}</style></defs><path class="cls-1" d="M75.34,0c-.11,0-.19,.09-.19,.19V23.81c0,.11,.09,.19,.19,.19s.19-.09,.19-.19V.19C75.53,.09,75.45,0,75.34,0Z"/><g><g><polygon class="cls-1" points="28.25 13.81 28.11 15.07 28.04 15.07 27.91 13.81 26.39 7.51 23.91 7.51 22.33 13.64 22.15 15.07 22.12 15.07 21.95 13.65 20.83 7.51 18.71 7.51 20.92 17.28 23.18 17.28 24.91 10.21 25.03 9.23 25.09 9.23 25.2 10.22 26.98 17.28 29.19 17.28 31.52 7.51 29.68 7.51 28.25 13.81"/><rect class="cls-1" x="32.64" y="6.95" width="2.04" height="1.72"/><rect class="cls-1" x="32.64" y="9.81" width="2.04" height="7.39"/><path class="cls-1" d="M41.37,9.64h-.7c-.53,0-.97,.08-1.32,.24-.35,.16-.62,.39-.82,.69l-.1-.76h-1.85v7.39h2.04v-5.85c.1-.03,.24-.06,.43-.08,.18-.03,.37-.04,.55-.04h1.06c.17,0,.29,.03,.38,.09,.08,.06,.13,.18,.13,.36v5.53h2.04v-5.96c0-.53-.14-.93-.43-1.2-.28-.27-.76-.4-1.42-.4Z"/><path class="cls-1" d="M49.89,15.85h-1.69c-.24,0-.39-.07-.44-.22-.05-.15-.08-.3-.08-.45v-3.96h2.24v-1.3h-2.24v-2.17l-2.01,.22v1.94h-1.27v1.3h1.27v4.41c0,.36,.06,.66,.18,.88,.12,.22,.27,.4,.47,.53,.2,.13,.42,.22,.68,.26,.26,.04,.52,.06,.8,.06,.25,0,.56-.03,.93-.08,.37-.05,.76-.18,1.17-.4v-1.04Z"/><path class="cls-1" d="M53.78,17.36h1.8c.39,0,.73-.03,1.03-.1,.29-.07,.57-.17,.82-.32v-1.04h-3.57c-.25,0-.46-.05-.62-.15-.16-.1-.24-.28-.24-.54v-1.23h3.47l1.05-.21v-2.2c0-.39-.07-.71-.22-.97-.15-.25-.35-.45-.61-.59-.26-.14-.56-.24-.9-.3-.34-.06-.7-.08-1.07-.08h-.98c-.39,0-.76,.04-1.09,.12-.34,.08-.63,.21-.88,.39-.25,.18-.45,.42-.59,.71s-.21,.65-.21,1.07v3.04c0,.45,.07,.83,.2,1.13,.13,.31,.32,.56,.57,.74,.25,.19,.54,.32,.89,.4,.35,.08,.73,.12,1.15,.12Zm-.77-5.68c0-.24,.05-.42,.14-.52,.09-.11,.27-.16,.52-.16h1.29c.24,0,.42,.04,.52,.13,.11,.08,.16,.25,.16,.5v1.12h-2.63v-1.06Z"/><path class="cls-1" d="M59.73,16.83c.24,.19,.54,.32,.89,.41s.75,.13,1.2,.13h1.16c.34,0,.67-.03,.99-.09,.33-.06,.62-.18,.9-.36v-1.01h-3.06c-.24,0-.43-.05-.57-.15-.14-.1-.21-.31-.21-.63v-3.2c0-.55,.25-.83,.76-.83h3.09v-1.04c-.29-.16-.59-.27-.92-.33-.32-.06-.65-.09-.99-.09h-1.18c-.9,0-1.6,.18-2.08,.55-.48,.37-.72,1-.72,1.9v2.85c0,.45,.06,.83,.19,1.14,.13,.31,.31,.56,.55,.75Z"/></g><g><path class="cls-1" d="M11.53,5.16s-.05,.05-.08,.08c-.08,.07-.2,.18-.21,.26-.01,.11,.02,.25,.06,.38,.02,.09,.04,.18,.05,.26,.03,.23,.04,.47,.05,.7,0,.02,0,.04,0,.06v.06s-.05,.05-.05,.05c-.39,.17-.78,.34-1.17,.52l-.18,.08c-.46,1.04-.87,2.19-1.24,3.51,1.3-.78,2.69-1.59,4.14-2.21,.86-.37,1.58-.6,2.27-.73,.48-.09,.87-.1,1.22-.04,.18,.03,.35,.08,.49,.14,.03,.01,.06,.03,.1,.06-.28-.5-.69-1.01-1.24-1.57-.36-.36-.79-.53-1.36-.53-.12,0-.25,0-.38,.02-.05,0-.11,.01-.16,.02l-.16,.02-.02-.07s-.02-.05-.02-.08c-.14-.69-.45-1.53-1.08-1.53-.15,0-.32,.05-.5,.14-.18,.09-.35,.23-.52,.4Z"/><path class="cls-1" d="M16.8,9.23c-.05-.16-.16-.28-.32-.36-.36-.18-.9-.2-1.45-.07-.04,.07-.09,.14-.14,.21-.03,.04-.06,.08-.08,.12,.69,.24,1.33,.53,1.91,.88,.12-.28,.16-.56,.08-.78Z"/><path class="cls-1" d="M7.32,19.44c-.16-.8-.17-1.63-.15-2.34,.03-1.64,.26-3.32,.69-5.01,.47-1.87,1.06-3.57,1.75-5.06,.49-1.06,1.29-2.8,2.73-3.15-.53-.18-1.07-.28-1.54-.36l-.12-.02c-.44-.07-.91-.12-1.25,0-.39,.15-.73,.49-.98,.77-.27,.3-.52,.64-.78,1.04l-.04,.07-.13-.08c-.54-.38-1.33-.88-1.98-.88-.22,0-.41,.06-.56,.17-.47,.35-.44,1.16-.26,1.81,.32,.14,.64,.33,.99,.55,.03,.02,.1,.07,.18,.14,.08,.07,.18,.14,.27,.21l.04,.03c.06,.04,.1,.07,.14,.08l.22,.14-.05,.11c-.05,.11-.09,.23-.14,.34l-.02,.05h-.32c-.22,0-.45,0-.67,0,.16,.31,.3,.57,.43,.8l.02,.03h0s.15,.28,.15,.28v.03c-.06,.16-.11,.33-.16,.49l-.04,.14-.14-.16c-.65-1.05-1.09-1.93-1.38-2.78-.35-1.03-.4-1.82-.13-2.41-.64,.43-1.29,1.06-1.77,1.73-.36,.5-.41,1.19-.14,2.16l.02,.08-.2,.06c-.39,.13-1.06,.41-1.21,.84-.07,.19-.02,.4,.12,.63,.19,.28,.45,.46,.73,.66l.17,.12c.09,.06,.17,.04,.29,0,.04-.02,.08-.03,.13-.04,.19-.05,.38-.1,.57-.14v-.02s.24-.01,.24-.01l.03,.05c.11,.21,.22,.41,.34,.62,.04,.06,.17,.28,.35,.56l.04,.06-.3,.29-.14-.07c-1.04-.33-2.76-.89-3.25-2.13C0,10.26,0,10.64,0,10.97v.23c0,.33,0,.67,.04,1,.12,.75,.83,1.18,1.46,1.56l.13,.08s.05,.03,.07,.05l.07,.05-.05,.07c-.23,.28-.51,.66-.72,1.07-.3,.62-.02,1.24,.29,1.77,.27,.45,.54,.88,.88,1.23-.06-.19-.05-.39,.03-.65,.1-.28,.24-.55,.46-.9,.39-.62,.88-1.17,1.35-1.67,.05-.05,.12-.11,.2-.18,.09-.08,.19-.16,.26-.25l.35-.31-.02,.21c-.06,.58-.09,1.17-.1,1.77v.06s-.13,.04-.13,.04h-.03c-.16,.05-.28,.09-.35,.11h0s-.08,.03-.08,.03c-.28,.08-.53,.14-.77,.19-.43,.57-.62,1.03-.55,1.34,.03,.15,.12,.26,.26,.34,.19,.11,.44,.16,.74,.16s.58-.05,.78-.09l.08-.02h0s.18-.01,.18-.01v.08c.1,.7,.27,1.4,.9,1.78,.4,.24,.84,.38,1.37,.54,.32,.1,.61,.18,.91,.23-.4-.33-.57-.96-.67-1.45Z"/><path class="cls-1" d="M10.69,12.71s.09,0,.14,0c.09,0,.19,0,.28,0h.62c.06,0,.11,0,.15,0,.28-.01,.54-.01,.8-.02h.46c.26-.02,.56-.03,.86-.05-.07-.16-.18-.32-.28-.48-.05-.07-.09-.14-.14-.21-.15-.24-.3-.47-.45-.71-.34-.51-.67-.97-1-1.4-.64,.31-1.31,.67-2.1,1.13,.1,.14,.2,.27,.3,.4,.17,.22,.33,.44,.49,.66l.02,.03-.09,.39h0s-.03,.13-.03,.13c-.01,.04-.02,.08-.03,.12Z"/><path class="cls-1" d="M14.54,12.6h.02s.15-.05,.31-.22l.31-.34,.06,.03c.09,.04,.19,.09,.28,.14,.08,.04,.16,.08,.25,.12,.07,.03,.27-.05,.4-.1,.04-.02,.08-.03,.1-.04,.31-.12,.65-.27,.79-.54,.18-.35-.11-.71-.2-.81-.53-.58-1.35-.94-2.07-1.22-.22-.08-.44-.16-.66-.23-.04-.01-.09-.03-.14-.06-.11-.05-.26-.11-.35-.11-.02,0-.03,0-.04,0-.4,.16-.75,.31-1.07,.46,.09,.18,.25,.36,.4,.54,.09,.11,.18,.21,.26,.32,.23,.32,.47,.66,.72,1.04l.29,.49c.1,.19,.2,.38,.34,.53Z"/><path class="cls-1" d="M16.32,12.79c-.66,.22-1.4,.36-2.39,.46-1.61,.16-3.33,.13-5.06-.09,.73,.84,1.52,1.63,2.34,2.35l.09,.09c.07,.07,.15,.14,.23,.19l.35,.28s.09,.08,.14,.12c.02-.05,.04-.1,.06-.17,.03-.08,.05-.14,.07-.19l.02-.05h.19c.12-.02,.24-.02,.37-.03l.26-.02,.02,.06c.05,.13,.11,.26,.14,.33h0l.02,.05c.12,.3,.24,.63,.32,.99,.32,.17,.76,.39,1.16,.39,.11,0,.21-.02,.31-.05,.45-.15,.48-.79,.46-1.05-.01-.26-.04-.49-.09-.69-.02-.09-.04-.18-.06-.25l-.03-.09,.09-.02c.25-.06,.47-.11,.66-.17h.04c.41-.14,.87-.28,1.12-.63,.28-.4,.37-.94,.45-1.46,.06-.4,.08-.8,.06-1.18-.27,.47-.93,.69-1.33,.83Z"/><path class="cls-1" d="M13.44,17.83c-.62-.29-1.25-.68-1.92-1.2-.64-.49-1.27-1.04-1.86-1.63-.28-.28-.56-.57-.83-.88-.02-.02-.06-.08-.12-.15-.1-.13-.33-.42-.46-.56-.17,.92-.26,1.82-.35,2.67v.05s-.08,1-.08,1l.21-.09,.04,.04,.03,.03c.2,.18,.4,.36,.6,.53l.05,.04-.16,.28c-.12,.2-.24,.39-.37,.58-.03,.04-.07,.09-.12,.14-.09,.1-.21,.23-.2,.32,.03,.36,.17,.86,.4,1.19,.15,.21,.32,.31,.52,.31,.6,0,1.32-.91,1.63-1.33h0s.12-.16,.12-.16l.06,.04c.53,.35,1.23,.76,1.88,.76,.18,0,.34-.03,.5-.09,.88-.33,1.65-1.05,2.1-1.54-.11,.03-.23,.05-.35,.05-.46,0-.92-.22-1.33-.41Z"/></g></g><g><path class="cls-1" d="M180.74,16.8c-.5,0-.68-.27-.68-1.02v-3.13c0-1.66-.81-2.53-2.32-2.53s-2.47,.73-3.14,1.69l.14,.14c.55-.48,1.19-.66,1.73-.66,1.01,0,1.34,.61,1.34,1.72v.31c-1.59,.32-3.46,.71-3.46,2.64,0,.96,.62,1.68,1.6,1.68,.84,0,1.47-.43,1.91-1.06,.14,.61,.64,1.05,1.48,1.05,.64,0,1.09-.27,1.41-.71v-.11Zm-2.95-.56c-.17,.06-.36,.1-.59,.1-.61,0-.89-.5-.89-1.02,0-.87,.5-1.36,1.48-1.58v2.5Z"/><path class="cls-1" d="M120.9,10.12c-2.11,0-3.48,1.31-3.48,3.63,0,2.1,1.3,3.88,3.42,3.88,1.61,0,2.65-.88,3.03-2.21l-.11-.06c-.27,.29-.8,.68-1.76,.68-1.23,0-2.21-.64-2.28-2.84h4.16c.04-1.68-1.05-3.1-2.99-3.1Zm.81,2.65l-1.98,.03c0-1.27,.36-2.24,1.09-2.24,.54,0,.89,.35,.89,1.68v.53Z"/><path class="cls-1" d="M117.97,10.23l-.36-3.16c-.81,.06-1.69,.13-2.58,.13h-3.48c-.95,0-1.75-.07-2.56-.13l-.36,3.16h.18c1.5-2.14,2.22-2.54,2.78-2.56h.46s0,6.8,0,6.8c0,1.36-.01,1.93-.22,2.88v.07h3v-.07c-.25-.95-.28-1.55-.28-2.88V7.66h.46c.56,.03,1.28,.43,2.78,2.57h.18Z"/><polygon class="cls-1" points="141.87 9.03 141.96 8.43 136.77 8.43 136.69 9.03 141.87 9.03"/><path class="cls-1" d="M142.53,10.34h-2.47v.07c.11,.34,.22,.84,.22,1.68v3.38c-.22,.45-.56,.74-1.02,.74-.63,0-.89-.45-.89-1.02v-4.85h-2.35v.08c.06,.35,.11,.84,.11,1.68v3.31c0,1.34,.67,2.22,1.89,2.22s2-.96,2.29-1.55h.04v1.34h2.47v-.07c-.21-.88-.29-1.29-.29-2.84v-4.18Z"/><path class="cls-1" d="M154.69,10.12c-2.11,0-3.48,1.31-3.48,3.63,0,2.1,1.3,3.88,3.42,3.88,1.61,0,2.65-.88,3.03-2.21l-.11-.06c-.27,.29-.8,.68-1.76,.68-1.23,0-2.21-.64-2.28-2.84h4.16c.04-1.68-1.05-3.1-2.99-3.1Zm.81,2.65l-1.98,.03c0-1.27,.36-2.24,1.09-2.24,.54,0,.89,.35,.89,1.68v.53Z"/><path class="cls-1" d="M165.39,12.06c0-1.19-.87-1.94-2.1-1.94s-1.7,.74-2.08,1.34h-.06v-1.34l-2.54,.74v.07c.22,.56,.36,1.13,.36,2.18v1.86c0,1.17-.06,1.76-.14,2.39v.07h2.53v-.07c-.1-.64-.15-1.23-.15-2.39v-2.81c.14-.42,.45-.92,.98-.92,.66,0,.95,.5,.95,1.1v2.64c0,1.12-.07,1.75-.15,2.38v.07h2.67v-.07c-.17-.64-.27-1.22-.27-2.4v-2.89Z"/><path class="cls-1" d="M171.29,16.22l-1.62-.18c-.95-.11-1.27-.2-1.27-.6,0-.14,.04-.28,.13-.38,.42,.15,.89,.25,1.41,.25,1.94,0,3.09-.94,3.09-2.57,0-.73-.27-1.29-.7-1.69l1.65,.11h.06v-1.62l-.08-.03-1.98,1.23c-.52-.39-1.08-.61-2.04-.61-1.8,0-3.09,1.09-3.09,2.57,0,.98,.47,1.7,1.26,2.14-.7,.35-1.31,.94-1.31,1.77,0,.68,.36,1.08,.99,1.33-.82,.1-1.62,.47-1.62,1.16,0,1.02,1.41,1.54,3.54,1.54,2.28,0,4.07-.91,4.07-2.43,0-1.24-1.16-1.84-2.46-1.98Zm-1.37-5.64c.67,0,.92,.66,.92,2.12s-.28,2.17-.91,2.17-.89-.67-.89-2.17,.21-2.12,.88-2.12Zm.41,9.57c-1.37,0-2.33-.45-2.33-1.37,0-.27,.08-.52,.21-.71,.29,.07,.63,.13,.99,.17l1.24,.14c1.31,.15,1.91,.25,1.91,.84s-.85,.94-2.03,.94Z"/><path class="cls-1" d="M148.3,12.56l.49-.43c.66-.57,1.17-1.01,2.14-1.66v-.13h-2.4l-.5,1.93-1.5,1.17V6.54l-2.53,.81v.07c.2,.59,.28,1.13,.28,2.18v5.63c0,1.13-.03,1.59-.14,2.12v.07h2.53v-.07c-.1-.5-.14-1.03-.14-2.12v-1.29l1.9,3.48h2.79v-.13c-.35-.43-.59-.74-.95-1.37l-1.97-3.37Z"/><path class="cls-1" d="M131.38,7.2h-3.76v.07c.21,.96,.22,1.51,.22,2.88v4.33c0,1.36-.01,1.93-.22,2.88v.07h3v-.07c-.25-.95-.28-1.55-.28-2.88v-1.24h.75c2.79,0,4.02-1.44,4.02-3.23,0-1.62-.96-2.81-3.74-2.81Zm-.63,5.58h-.41V7.67c.17-.01,.28-.01,.42-.01,1.13,0,1.8,.99,1.8,2.35s-.53,2.77-1.82,2.77Z"/><path class="cls-1" d="M101.83,17.99c1.35-4.39,2.64-9.36,3.75-14.64,0-.03-.03-.04-.04-.02-3.07,3.1-8.4,5.7-12.78,6.45-2.6-1.61-4.78-3.63-7.4-6.4-.02-.02-.05,0-.04,.02,1.2,5.36,2.58,10.72,4.26,16.1,1.93,.72,4.78,1.25,8,1.35,.02,0,.02-.02,0-.03-1.73-.52-3.21-1.07-4.52-1.79-.02-.01-.01-.04,.01-.04,2.17,.17,5.37,.18,8.76-1Zm-3.82-.93c-1.65-.44-3.45-1.33-5.22-2.47-.02-.01,0-.04,.01-.04,2.67,.5,6.15,.75,9.83-.44,.02,0,.04,.02,.02,.03-1.34,1.13-2.97,2.12-4.64,2.91Zm-4.85-7.08c3.65,.54,7.57,.25,10.86-1.18,.02,0,.04,.02,.02,.03-1.71,1.52-3.4,2.74-5.56,3.73-1.98-.8-3.74-1.61-5.33-2.55-.02-.01,0-.04,.01-.04Zm-6.08-.3s0-.04,.03-.03c3.54,2,7.31,2.8,10.98,3.06,.02,0,.03,.03,0,.04-1.61,.7-3.44,1.23-5.66,1.61-2.1-1.39-4.04-3.09-5.36-4.68Zm5.63,9.14c-1.42-.83-2.71-1.89-4.08-3.37-.02-.02,0-.04,.02-.03,2.82,1.26,5.91,1.87,8.97,1.78,.02,0,.03,.03,0,.04-1.66,.76-3.39,1.32-4.92,1.59Z"/></g></svg>